<svg version="1.0" xmlns="http://www.w3.org/2000/svg" width="682.667" height="682.667" viewBox="0 0 512 512"><path style="fill:#36f" d="M0 225.4v225.3l20.3.6c23.9.6 35.5 2.4 67.7 10.2 37.1 9 53.1 11.1 78.9 10.2 25.6-.8 42.5-4.2 77.2-15.4l20.7-6.6 2.5-8.6c6.3-21.3 8.8-39 8.8-61.6.1-17.8-.9-26.2-4.1-38.3-7.6-27.9-25.7-46.4-52.5-53.8-2.7-.8-12.9-3-22.5-5-28.2-5.7-41.3-10.1-64.3-21.5-19-9.5-36.2-21.5-48.8-34-6.8-6.8-12.7-16.5-11-18.2.5-.5 3.1-.7 5.8-.4 30.8 2.9 35.6 3.1 50.5 1.9 14.6-1.2 19.4-2 52.8-9.2 25.5-5.5 40-5.1 53 1.5 2.7 1.4 5.3 2.5 5.8 2.5s1.2-1.8 1.5-4c.7-5.8 4.1-11.7 10-17.8 6.7-6.9 15.2-12.5 31.2-20.5 7.2-3.6 16.2-8.7 20-11.5 7.9-5.6 21.5-18.6 35.8-34.3 9.6-10.7 17.4-16.9 20.9-16.9 3.3 0 4.2 4.6 4.1 20-.1 15.8-1.6 26.9-6.3 44.5-6.9 26.1-16.9 49.9-29.7 70.6-3.7 6-9.4 15.1-12.5 20.2-13.5 21.6-16.3 38.3-10.7 62.6 1.1 4.6 6 18.4 10.9 30.7 14.1 35.2 18.9 51.7 24.4 84.5l.6 3.6 18.3.6c21 .6 33.1 2.5 58.9 9.1 38 9.7 56.5 12.2 88.1 11.7l5.7-.1V0H0v225.4z"/></svg>